<mxfile host="app.diagrams.net" modified="2023-10-31T14:25:57.987Z" agent="Mozilla/5.0 (Windows NT 10.0; Win64; x64) AppleWebKit/537.36 (KHTML, like Gecko) Chrome/118.0.0.0 Safari/537.36" etag="LjeWqHLbYS8RNyVy1AH2" version="22.0.8" type="github">
  <diagram name="PÃ¡gina-1" id="y7grVubEfJhcLXRVopNt">
    <mxGraphModel dx="673" dy="1727" grid="1" gridSize="10" guides="1" tooltips="1" connect="1" arrows="1" fold="1" page="1" pageScale="1" pageWidth="827" pageHeight="1169" math="0" shadow="0">
      <root>
        <mxCell id="0" />
        <mxCell id="1" parent="0" />
        <mxCell id="Cw4gRs4lIpa7loLSyA47-1" value="firabase" style="shape=cylinder3;whiteSpace=wrap;html=1;boundedLbl=1;backgroundOutline=1;size=15;" vertex="1" parent="1">
          <mxGeometry x="10" y="90" width="100" height="210" as="geometry" />
        </mxCell>
        <mxCell id="Cw4gRs4lIpa7loLSyA47-4" style="edgeStyle=orthogonalEdgeStyle;rounded=0;orthogonalLoop=1;jettySize=auto;html=1;" edge="1" parent="1" source="Cw4gRs4lIpa7loLSyA47-2" target="Cw4gRs4lIpa7loLSyA47-3">
          <mxGeometry relative="1" as="geometry" />
        </mxCell>
        <mxCell id="Cw4gRs4lIpa7loLSyA47-8" style="edgeStyle=orthogonalEdgeStyle;rounded=0;orthogonalLoop=1;jettySize=auto;html=1;entryX=0.5;entryY=0;entryDx=0;entryDy=0;" edge="1" parent="1" source="Cw4gRs4lIpa7loLSyA47-2" target="Cw4gRs4lIpa7loLSyA47-6">
          <mxGeometry relative="1" as="geometry" />
        </mxCell>
        <mxCell id="Cw4gRs4lIpa7loLSyA47-2" value="FRONTEND -REACT" style="rounded=0;whiteSpace=wrap;html=1;" vertex="1" parent="1">
          <mxGeometry x="430" y="140" width="120" height="60" as="geometry" />
        </mxCell>
        <mxCell id="Cw4gRs4lIpa7loLSyA47-3" value="Redux state global" style="ellipse;whiteSpace=wrap;html=1;" vertex="1" parent="1">
          <mxGeometry x="430" y="20" width="120" height="80" as="geometry" />
        </mxCell>
        <mxCell id="Cw4gRs4lIpa7loLSyA47-5" style="edgeStyle=orthogonalEdgeStyle;rounded=0;orthogonalLoop=1;jettySize=auto;html=1;" edge="1" parent="1" source="Cw4gRs4lIpa7loLSyA47-2" target="Cw4gRs4lIpa7loLSyA47-1">
          <mxGeometry relative="1" as="geometry">
            <mxPoint x="374" y="199.5" as="sourcePoint" />
            <mxPoint x="136" y="174.94000000000005" as="targetPoint" />
            <Array as="points">
              <mxPoint x="270" y="190" />
              <mxPoint x="270" y="195" />
            </Array>
          </mxGeometry>
        </mxCell>
        <mxCell id="Cw4gRs4lIpa7loLSyA47-7" style="edgeStyle=orthogonalEdgeStyle;rounded=0;orthogonalLoop=1;jettySize=auto;html=1;" edge="1" parent="1" source="Cw4gRs4lIpa7loLSyA47-6" target="Cw4gRs4lIpa7loLSyA47-1">
          <mxGeometry relative="1" as="geometry">
            <Array as="points">
              <mxPoint x="80" y="440" />
            </Array>
          </mxGeometry>
        </mxCell>
        <mxCell id="Cw4gRs4lIpa7loLSyA47-15" style="edgeStyle=orthogonalEdgeStyle;rounded=0;orthogonalLoop=1;jettySize=auto;html=1;" edge="1" parent="1" source="Cw4gRs4lIpa7loLSyA47-6" target="Cw4gRs4lIpa7loLSyA47-2">
          <mxGeometry relative="1" as="geometry">
            <mxPoint x="530" y="210" as="targetPoint" />
          </mxGeometry>
        </mxCell>
        <mxCell id="Cw4gRs4lIpa7loLSyA47-6" value="BACKEND&amp;nbsp;&lt;br&gt;" style="rounded=0;whiteSpace=wrap;html=1;" vertex="1" parent="1">
          <mxGeometry x="400" y="410" width="120" height="60" as="geometry" />
        </mxCell>
        <mxCell id="Cw4gRs4lIpa7loLSyA47-9" value="el front hace solicitudes post /get al backend&amp;nbsp;" style="text;html=1;strokeColor=none;fillColor=none;align=center;verticalAlign=middle;whiteSpace=wrap;rounded=0;" vertex="1" parent="1">
          <mxGeometry x="230" y="280" width="230" height="70" as="geometry" />
        </mxCell>
        <mxCell id="Cw4gRs4lIpa7loLSyA47-10" value="al iniciar sesion se crea un id unico por usuario y un jwt&amp;nbsp;&lt;br&gt;&lt;br&gt;&lt;div style=&quot;color: rgb(204, 204, 204); background-color: rgb(31, 31, 31); font-family: Consolas, &amp;quot;Courier New&amp;quot;, monospace; font-size: 14px; line-height: 19px;&quot;&gt;onAuthStateChanged&lt;/div&gt;&lt;div style=&quot;color: rgb(204, 204, 204); background-color: rgb(31, 31, 31); font-family: Consolas, &amp;quot;Courier New&amp;quot;, monospace; font-size: 14px; line-height: 19px;&quot;&gt;&lt;div style=&quot;line-height: 19px;&quot;&gt;signOut&lt;/div&gt;&lt;div style=&quot;line-height: 19px;&quot;&gt;&lt;br&gt;&lt;/div&gt;&lt;div style=&quot;line-height: 19px;&quot;&gt;&lt;div style=&quot;line-height: 19px;&quot;&gt;&amp;nbsp;signInWithEmailAndPassword&lt;/div&gt;&lt;div style=&quot;line-height: 19px;&quot;&gt;&lt;div style=&quot;line-height: 19px;&quot;&gt;createUserWithEmailAndPassword&lt;/div&gt;&lt;/div&gt;&lt;/div&gt;&lt;/div&gt;" style="text;html=1;strokeColor=none;fillColor=none;align=center;verticalAlign=middle;whiteSpace=wrap;rounded=0;" vertex="1" parent="1">
          <mxGeometry x="130" y="-10" width="250" height="170" as="geometry" />
        </mxCell>
        <mxCell id="Cw4gRs4lIpa7loLSyA47-11" value="credenciales" style="rounded=1;whiteSpace=wrap;html=1;" vertex="1" parent="1">
          <mxGeometry x="100" y="220" width="120" height="60" as="geometry" />
        </mxCell>
        <mxCell id="Cw4gRs4lIpa7loLSyA47-12" value="&#39;firebase-admin&#39; con esto chekea el back que el jwt sea valido" style="text;html=1;strokeColor=none;fillColor=none;align=center;verticalAlign=middle;whiteSpace=wrap;rounded=0;" vertex="1" parent="1">
          <mxGeometry x="175" y="450" width="160" height="70" as="geometry" />
        </mxCell>
        <mxCell id="Cw4gRs4lIpa7loLSyA47-16" value="si el token es valido responde la solicitud" style="text;html=1;strokeColor=none;fillColor=none;align=center;verticalAlign=middle;whiteSpace=wrap;rounded=0;" vertex="1" parent="1">
          <mxGeometry x="500" y="250" width="120" height="90" as="geometry" />
        </mxCell>
      </root>
    </mxGraphModel>
  </diagram>
</mxfile>
